{"title":"Fast.and.Furious.5.Rio.Heist.2011.New Source.TS.x264.Feel-Free","uid":6419538,"size":1401371688,"categoryP":"video","categoryS":"movies","magnet":"?xt=urn:btih:10d9b678b26aa502d3b2129c3235c729fd13d07d&amp;dn=Fast.and.Furious.5.Rio.Heist.2011.New+Source.TS.x264.Feel-Free&amp;tr=udp%3A%2F%2Ftracker.openbittorrent.com%3A80&amp;tr=udp%3A%2F%2Fopen.demonii.com%3A1337&amp;tr=udp%3A%2F%2Ftracker.coppersurfer.tk%3A6969&amp;tr=udp%3A%2F%2Fexodus.desync.com%3A6969","seeders":0,"leechers":1,"uploader":".BONE.","files":13,"time":1306268655,"description":"Genre:Action | Crime | Drama\n Language:English\n &lt;a href=&quot;\nhttp://www.imdb.com/title/tt1596343/&quot; rel=&quot;nofollow&quot; target=&quot;_NEW&quot;&gt;\nhttp://www.imdb.com/title/tt1596343/&lt;/a&gt;\n\n Source:German 720P TS/IMAGINE Thanks!\n \nFormat : MPEG-4\n Format profile : Base Media\n Codec ID : isom\n File size : 1.30 GiB\n Duration : 1h 56mn\n Overall bit rate : 1 600 Kbps\n \nVideo\n ID : 1\n Format : AVC\n Format/Info : Advanced Video Codec\n Format profile : &lt;a class=&quot;__cf_email__&quot; href=&quot;/cdn-cgi/l/email-protection&quot; data-cfemail=&quot;377f5e505f777b031906&quot;&gt;[email&amp;#160;protected]&lt;/a&gt;&lt;script cf-hash='f9e31' type=&quot;text/javascript&quot;&gt;\n/* &lt;![CDATA[ */!function(){try{var t=&quot;currentScript&quot;in document?document.currentScript:function(){for(var t=document.getElementsByTagName(&quot;script&quot;),e=t.length;e--;)if(t[e].getAttribute(&quot;cf-hash&quot;))return t[e]}();if(t&amp;&amp;t.previousSibling){var e,r,n,i,c=t.previousSibling,a=c.getAttribute(&quot;data-cfemail&quot;);if(a){for(e=&quot;&quot;,r=parseInt(a.substr(0,2),16),n=2;a.length-n;n+=2)i=parseInt(a.substr(n,2),16)^r,e+=String.fromCharCode(i);e=document.createTextNode(e),c.parentNode.replaceChild(e,c)}}}catch(u){}}();/* ]]&gt; */&lt;/script&gt;\n Format settings, CABAC : Yes\n Format settings, ReFrames : 3 frames\n Codec ID : avc1\n Codec ID/Info : Advanced Video Coding\n Duration : 1h 56mn\n Bit rate mode : Variable\n Bit rate : 1 362 Kbps\n Maximum bit rate : 6 745 Kbps\n Width : 720 pixels\n Height : 304 pixels\n Display aspect ratio : 2.35:1\n Frame rate mode : Constant\n Frame rate : 25.000 fps\n Color space : YUV\n Chroma subsampling : 4:2:0\n Bit depth : 8 bits\n Scan type : Progressive\n Bits/(Pixel*Frame) : 0.249\n Stream size : 1.12 GiB (86%)\n Writing library : x264\n \nAudio\n ID : 2\n Format : AAC\n Format/Info : Advanced Audio Codec\n Format version : Version 4\n Format profile : LC\n Format settings, SBR : No\n Codec ID : 40\n Duration : 1h 56mn\n Bit rate mode : Variable\n Bit rate : 224 Kbps\n Maximum bit rate : 293 Kbps\n Channel(s) : 2 channels\n Channel positions : Front: L R\n Sampling rate : 48.0 KHz\n Stream size : 187 MiB (14%)\n \n\nPlot:\n Dominic and his crew find themselves on the wrong side of the law once again as they try to switch lanes between a ruthless drug lord and a relentless federal agent.\n &lt;a href=&quot;\nhttp://www.pix2links.com/images/21702749778584176155.png&quot; rel=&quot;nofollow&quot; target=&quot;_NEW&quot;&gt;\nhttp://www.pix2links.com/images/21702749778584176155.png&lt;/a&gt;\n &lt;a href=&quot;\nhttp://www.pix2links.com/images/89246015672609903398.png&quot; rel=&quot;nofollow&quot; target=&quot;_NEW&quot;&gt;\nhttp://www.pix2links.com/images/89246015672609903398.png&lt;/a&gt;\n &lt;a href=&quot;\nhttp://www.pix2links.com/images/14934704990678081679.png&quot; rel=&quot;nofollow&quot; target=&quot;_NEW&quot;&gt;\nhttp://www.pix2links.com/images/14934704990678081679.png&lt;/a&gt;\n &lt;a href=&quot;\nhttp://www.pix2links.com/images/90169430472251975962.png&quot; rel=&quot;nofollow&quot; target=&quot;_NEW&quot;&gt;\nhttp://www.pix2links.com/images/90169430472251975962.png&lt;/a&gt;\n &lt;a href=&quot;\nhttp://www.pix2links.com/images/96413924236135873172.png&quot; rel=&quot;nofollow&quot; target=&quot;_NEW&quot;&gt;\nhttp://www.pix2links.com/images/96413924236135873172.png&lt;/a&gt;\n &lt;a href=&quot;\nhttp://www.pix2links.com/images/40331640548232961893.png&quot; rel=&quot;nofollow&quot; target=&quot;_NEW&quot;&gt;\nhttp://www.pix2links.com/images/40331640548232961893.png&lt;/a&gt;\n &lt;a href=&quot;\nhttp://www.pix2links.com/images/40543587259613634338.png&quot; rel=&quot;nofollow&quot; target=&quot;_NEW&quot;&gt;\nhttp://www.pix2links.com/images/40543587259613634338.png&lt;/a&gt;\n ","torrent":{"xt":"urn:btih:10d9b678b26aa502d3b2129c3235c729fd13d07d","amp;dn":"Fast.and.Furious.5.Rio.Heist.2011.New+Source.TS.x264.Feel-Free","amp;tr":["udp%3A%2F%2Ftracker.openbittorrent.com%3A80","udp%3A%2F%2Fopen.demonii.com%3A1337","udp%3A%2F%2Ftracker.coppersurfer.tk%3A6969","udp%3A%2F%2Fexodus.desync.com%3A6969"],"infoHash":"10d9b678b26aa502d3b2129c3235c729fd13d07d","infoHashBuffer":{"type":"Buffer","data":[16,217,182,120,178,106,165,2,211,178,18,156,50,53,199,41,253,19,208,125]},"announce":[],"urlList":[]}}